<svg width="121" height="113" viewBox="0 0 121 113" fill="none" xmlns="http://www.w3.org/2000/svg">
<g clip-path="url(#clip0_310_6)">
<path d="M59.8554 62.2234C60.0669 62.1881 60.2784 62.1225 60.4798 62.0167C61.0942 61.6939 61.4819 61.0687 61.8395 60.4738C63.2091 58.1996 64.5787 55.9254 65.9535 53.6564C66.6534 52.4966 67.4793 51.4276 68.1591 50.2628C68.421 49.8141 68.8489 49.1434 68.8439 48.5988C68.8339 47.3887 66.5578 47.8676 66.2103 46.6474C66.0895 46.2188 66.165 45.7499 66.3312 45.3363C66.7592 44.2674 67.7361 43.511 68.7532 42.9766C69.8963 42.3764 71.0999 41.9226 72.2279 41.2924C73.109 40.7982 73.3105 40.0217 73.8846 39.2704C74.4133 38.5795 75.2492 38.6299 75.934 39.0435C76.765 39.5426 76.8203 40.5713 77.7217 41.01C78.2202 41.252 78.7792 41.3427 79.318 41.4739C80.9948 41.8823 82.6313 42.7396 83.8198 44.0001C84.9528 45.2002 85.9247 46.9852 85.7787 48.6694C85.6226 50.4443 84.5147 52.0075 83.3717 53.3033C81.1308 55.8447 78.4921 57.9474 75.8484 60.0451C73.8595 61.6183 71.7696 63.2117 69.5943 64.548C67.721 65.7027 65.0924 66.9835 62.8465 66.4338C60.5705 65.8791 58.4455 64.7093 56.9197 62.9042C56.7837 62.7428 56.6478 62.5512 56.678 62.3445C56.7736 61.704 57.7707 62.0016 58.1533 62.0873C58.7073 62.2082 59.2915 62.3192 59.8504 62.2234H59.8554ZM66.6937 60.4738C70.7222 58.9106 76.0147 55.2044 78.9303 52.1335C83.0494 47.7669 82.6264 44.817 76.7952 44.096C76.0146 44.0052 75.4104 44.2169 75.0831 45.0288C74.8414 45.5986 74.4838 46.1129 74.1515 46.6524C72.4091 49.693 70.6064 52.7033 68.8591 55.7439C68.0181 57.2214 67.2074 58.724 66.3362 60.3174C66.4873 60.3779 66.6081 60.4989 66.6988 60.4687L66.6937 60.4738Z" fill="#2B4D9C"/>
<path d="M95.4671 45.9868C95.1498 46.0121 94.9233 46.0473 94.8225 46.0927C94.4952 46.239 94.2435 46.5062 94.0118 46.7784C93.7197 47.1214 91.7004 50.4745 91.4739 50.4392C92.5414 50.6258 93.5586 50.3637 94.6312 50.7923C95.5476 51.1553 96.3584 51.8461 96.7562 52.7538C96.9576 53.2126 96.9525 53.6412 96.4541 53.8529C95.7441 54.1505 94.1628 53.7824 93.3622 53.8025C92.2846 53.8328 91.207 53.9236 90.1495 54.1253C88.0296 54.5337 87.2389 56.4751 86.1109 58.1289C85.4765 59.0618 84.988 60.1812 84.7413 61.2805C86.6296 61.2099 88.669 61.2502 90.4667 61.9461C92.2191 62.6268 93.7751 64.1446 93.9413 66.0153C89.6762 66.0859 85.406 66.1514 81.1408 66.2221C80.3804 66.2321 79.5999 66.2422 78.8798 65.9952C78.1597 65.7481 77.5001 65.1783 77.3591 64.432C77.1527 63.363 78.0188 62.3999 78.8748 61.7292C80.4913 60.4535 80.8387 58.9458 82.0925 57.413C82.7572 56.6062 83.7593 55.7238 83.1903 54.5943C82.8177 53.858 82.4904 53.1067 82.1127 52.3756C83.5629 52.2595 85.1894 51.9117 86.3376 50.9738C86.9972 50.4291 87.3396 49.6527 87.7475 48.9265C88.2058 48.0996 88.8805 47.4037 89.3438 46.5868C89.1072 47.0053 87.2037 46.1128 86.9469 45.9364C86.1966 45.417 85.6426 44.5699 85.406 43.6925C85.3758 43.5715 85.557 43.2689 85.6477 43.2689C87.813 43.148 90.0085 43.0572 92.199 42.9059C94.5154 42.7244 96.8267 42.4521 99.1732 42.2151C100.407 42.0941 102.24 43.1782 102.572 44.3531C102.693 44.8372 102.542 45.407 102.511 45.8002C102.497 45.9868 97.3755 45.8406 95.4721 45.9969L95.4671 45.9868Z" fill="#2B4D9C"/>
<path d="M105.67 47.5248C107.537 49.0224 105.025 51.3671 104.154 52.8092C102.97 54.7606 101.781 56.7524 100.704 58.7492C100.11 59.8535 100.719 61.9461 102.265 61.6133C102.617 61.5377 102.934 61.3511 103.227 61.1443C104.063 60.5493 104.758 59.7729 105.397 58.9661C106.359 57.7508 107.21 56.4549 108.056 55.1641C109.289 53.2832 110.7 51.3319 111.46 49.1989C111.672 48.614 111.778 47.9383 112.306 47.5349C112.85 47.1214 113.591 47.2676 114.225 47.2323C114.859 47.1971 115.508 47.1971 116.143 47.2676C115.931 52.7991 114.442 58.3307 112.291 63.4084C111.953 64.2051 111.596 65.1077 111.933 65.9044C112.216 66.57 112.97 67.1196 112.815 67.8256C112.432 69.5501 108.972 68.6424 108.192 67.8054C107.22 66.7566 107.411 65.3044 107.708 64.0236C108.005 62.7428 108.177 61.2452 108.691 60.0148C108.102 61.4267 106.676 63.2622 106.666 64.78C104.506 65.8791 102.028 66.3381 99.6214 66.0859C98.6948 65.9901 97.7482 65.7733 97.013 65.2035C95.9757 64.4018 95.5325 63.0101 95.5829 61.699C95.6634 59.5912 96.7712 57.9828 97.6676 56.1775C98.6545 54.1909 99.8229 52.305 100.936 50.3889C101.087 50.1317 102.764 47.0357 102.034 47.0155C103.297 47.0458 104.466 46.5617 105.67 47.5299V47.5248Z" fill="#2B4D9C"/>
<path d="M39.1893 86.1295C39.577 85.0806 39.9597 84.0369 40.3071 82.978C41.2992 79.9576 41.6265 76.7506 42.5681 73.7554C42.9056 72.6763 41.9438 72.3486 41.1833 71.8695C40.8812 71.6779 40.6042 71.3754 40.6295 71.0224C40.6597 70.6241 41.0424 70.3618 41.3596 70.1147C42.7595 69.0054 43.253 67.1448 44.3709 65.7884C45.6348 64.2656 47.367 62.9243 49.2302 62.2385C52.2566 61.1191 55.7161 63.5142 56.6074 66.4237C57.0102 67.7297 56.8995 69.1466 56.5369 70.4627C55.6556 73.6546 53.7824 77.0531 51.4308 79.3828C49.3259 81.4652 47.0095 83.2301 44.1141 84.0066C43.8371 84.052 43.4393 84.3445 43.389 84.6066C43.0818 86.2051 42.6739 87.7279 42.2005 89.2659C41.5258 91.4593 41.697 93.799 41.5258 96.0227C41.4956 96.4009 41.3445 96.7892 41.0323 97.011C40.5186 97.3842 39.7935 97.1824 39.2195 96.9051C38.162 96.3908 37.2002 95.6747 36.4096 94.8024C36.5758 93.0476 37.457 91.772 37.9505 90.1533C38.3584 88.8121 38.6907 87.4707 39.1843 86.1346L39.1893 86.1295ZM48.0167 68.4356C47.4678 69.6559 47.2815 71.2392 46.944 72.4444C46.4405 74.2596 45.937 76.0749 45.4334 77.8902C45.3126 78.3339 45.1867 78.7827 45.2017 79.2466C45.2169 79.6147 45.9621 78.692 46.0327 78.6213C46.4355 78.2079 46.9038 77.8548 47.3167 77.4515C49.0641 75.7321 50.484 73.6949 51.5567 71.4913C52.0803 70.4123 54.2507 66.3834 52.7854 65.4253C51.6977 64.7093 48.9986 66.8776 48.4144 67.7197C48.2634 67.9415 48.1274 68.1836 48.0116 68.4407L48.0167 68.4356Z" fill="#E25097"/>
<path d="M54.6235 82.7259C54.704 82.6098 54.7845 82.499 54.8652 82.383C55.1824 81.9493 56.5168 80.8148 56.1038 80.2197C55.6507 79.5693 54.6385 79.3979 54.15 78.6365C54.0242 78.4398 53.9184 78.2129 53.9638 77.986C54.0192 77.7137 54.2759 77.5422 54.5077 77.386C56.3003 76.1657 57.5088 74.2849 58.9239 72.636C59.795 71.6225 60.8071 70.6644 62.0107 70.0593C63.2242 69.4441 64.6946 69.3029 66.024 69.0659C67.8671 68.7432 69.7554 68.7685 71.5833 69.1718C72.2883 69.3282 73.0084 69.545 73.5623 70.0089C74.9471 71.1636 74.3126 73.1452 73.8845 74.5924C73.3609 76.3523 72.3084 77.9255 70.9841 79.186C68.8037 81.2534 65.9535 82.383 63.2242 83.5074C62.1315 83.9562 62.9372 85.2622 63.1789 86.0336C64.0702 88.8574 64.3723 91.9131 66.4117 94.2326C66.875 94.757 67.7462 95.7454 67.1318 96.4564C66.8751 96.7539 66.4823 96.89 66.1096 96.9909C65.2384 97.2279 64.3371 97.3387 63.4306 97.3136C62.9976 97.2984 62.5545 97.2632 62.1567 97.0967C61.2352 96.7136 61.0589 95.7605 61.069 94.8528C61.0941 93.0628 60.8071 91.2828 60.4144 89.5382C60.3438 89.2154 59.4122 85.1261 59.3468 85.1361C58.1131 85.3126 57.5189 85.4841 56.7686 86.4875C56.0736 87.4254 55.4543 88.4137 54.9104 89.4473C54.2457 90.718 53.6969 92.0493 53.2839 93.4208C52.9718 94.4495 53.2689 97.137 51.6977 97.127C51.1992 97.127 50.7661 96.8093 50.3683 96.5068C49.7037 96.0026 49.044 95.4933 48.3793 94.989C48.1879 94.036 48.7217 93.1081 49.2353 92.2812C50.0763 90.9248 50.9324 89.5735 51.7632 88.212C52.3725 87.2136 52.6242 86.1093 53.1933 85.0807C53.6365 84.2739 54.1048 83.4822 54.6285 82.7259H54.6235ZM63.3904 73.9571C63.0681 74.4563 62.8113 75.0059 62.5545 75.5455C62.1164 76.4783 61.6783 77.4111 61.2452 78.344C61.0589 78.7424 60.5755 79.6803 60.7618 80.1189C61.2452 81.2636 65.46 78.1272 65.9485 77.7792C67.298 76.8263 72.1322 73.8814 69.5137 71.9855C68.0181 70.9014 64.7953 72.1972 63.7832 73.4175C63.6421 73.589 63.5113 73.7705 63.3904 73.9571Z" fill="#E25097"/>
<path d="M79.3682 89.8761C74.9722 89.4979 75.8333 92.9116 75.2894 95.7908C73.95 96.3808 69.4129 98.9927 69.4129 96.3152C69.5036 95.0445 69.8963 93.7335 70.3445 92.5486C71.2055 90.2643 72.5551 88.1869 74.1716 86.3665C74.9873 85.4488 75.7678 84.4907 76.5534 83.5579C77.3389 82.625 77.9583 81.5157 78.6885 80.5375C80.1639 78.5609 81.735 76.6548 83.3967 74.8345C84.8924 73.1957 86.4634 71.6225 88.1 70.1249C88.6287 69.6408 89.1776 69.1567 89.8071 68.8139C90.5221 68.4206 91.1264 68.4458 91.9221 68.4659C92.3752 68.4761 95.3916 69.5199 95.4218 69.4996C93.7247 70.5939 92.7982 72.4596 91.8566 74.1739C90.794 76.1103 89.943 78.2482 89.2028 80.3308C88.4979 82.3175 87.7878 84.7479 87.8885 86.8708C88.1302 90.0323 88.3014 93.3099 88.956 96.4009C89.0165 96.6833 89.0669 97.0161 88.8805 97.2379C88.6942 97.4599 88.3568 97.4649 88.0647 97.4498C86.831 97.3892 85.5973 97.3288 84.3585 97.2682C83.6989 97.233 82.9386 97.1472 82.5709 96.5976C82.3846 96.3203 82.3393 95.9723 82.299 95.6396C82.1127 94.0916 82.1883 92.1855 81.594 90.7332C81.161 89.6744 80.6222 89.9819 79.3682 89.8761ZM83.3464 79.1508C81.8559 80.6232 81.025 82.4032 80.0179 84.2387C79.8165 84.6017 79.6099 84.9748 79.2978 85.2521C78.9856 85.5295 78.5374 85.6858 78.1446 85.5497C78.9201 85.585 79.7056 85.59 80.4559 85.3883C82.3947 84.8689 83.3766 82.6554 84.1924 81.0014C84.565 80.2501 85.1039 79.5845 85.7484 79.0499C85.9045 78.9239 87.6317 77.749 87.7425 77.9508C87.526 77.5574 87.0526 77.3507 86.6045 77.3406C86.1562 77.3305 85.7182 77.497 85.3153 77.6986C84.5952 78.0567 83.9406 78.5609 83.3413 79.1508H83.3464Z" fill="#E25097"/>
<path d="M98.841 95.6698C99.0122 95.9824 97.6979 97.0665 97.4461 97.122C97.1591 97.1875 96.8822 97.1522 96.6052 97.122C95.9405 97.0412 95.2758 96.9606 94.6061 96.8749C94.4046 96.8496 94.1931 96.8244 94.032 96.7085C93.8054 96.5471 93.7147 96.2345 93.7249 95.9269C93.735 95.4579 93.9161 94.9537 94.0974 94.5049C95.0693 92.0846 95.3362 89.644 95.8297 87.1682C96.2879 84.8588 96.7462 82.5444 97.1541 80.2299C97.5721 77.8448 97.7382 75.4395 98.4935 73.0797C99.2639 70.6695 101.092 70.5585 102.648 71.6527C102.738 71.7133 102.825 71.7838 102.869 71.8897C102.975 72.1418 102.784 72.4646 102.618 72.7318C101.832 73.9974 101.767 75.2631 101.49 76.6296C101.218 77.9759 101.006 79.3272 100.785 80.6735C100.352 83.3107 99.9538 85.953 99.5007 88.5902C99.269 89.9365 99.0273 91.2777 98.7756 92.6191C98.6345 93.3755 98.3878 94.1066 98.2972 94.868C98.282 94.9739 98.2719 95.0848 98.3021 95.1755C98.3173 95.2159 98.3323 95.2462 98.3576 95.2764C98.4834 95.4378 98.7403 95.4832 98.846 95.6748L98.841 95.6698Z" fill="#E25097"/>
<path d="M112.87 90.5819C112.306 90.6627 110.785 91.898 110.272 91.651C109.723 91.3887 109.356 93.8797 109.199 94.4697C109.068 94.9689 109.028 95.4731 108.982 95.9874C108.938 96.5017 108.504 96.885 107.996 96.8648C106.852 96.8144 104.969 96.89 104.728 96.9405C104.184 97.0464 103.65 97.2077 103.142 97.4246C102.386 97.7473 101.61 96.9909 101.882 96.2143C103.927 90.4559 106.55 84.9092 109.587 79.6147C111.082 77.0027 112.684 74.4513 114.37 71.9553C115.902 69.6912 116.485 66.802 114.26 64.7346C114.346 64.8908 115.902 64.3513 116.103 64.3362C116.879 64.2857 117.573 64.4723 118.254 64.8707C119.557 65.6321 120.489 67.0339 120.811 68.4912C121.31 70.7199 120.741 73.0192 120.036 75.1371C119.371 77.1338 118.006 79.3727 117.815 81.4703C117.725 82.4838 118.097 83.6083 118.973 84.1125C119.044 84.1529 119.119 84.1882 119.17 84.2537C119.311 84.4201 119.235 84.6924 119.074 84.8387C118.912 84.9849 118.691 85.0454 118.489 85.1261C116.516 85.8825 116.944 87.1783 117.261 88.8927C117.522 90.3097 117.72 91.7568 118.051 93.1636C118.223 93.8848 118.984 94.8832 118.943 95.5841C118.822 97.5909 115.826 96.5421 114.667 96.8598C114.149 96.9707 113.635 96.6379 113.529 96.1136C113.449 95.7303 113.394 95.3319 113.333 94.9436C113.258 94.4092 113.403 90.5114 112.87 90.592V90.5819ZM114.355 79.4232C113.514 79.9375 113.041 81.0014 112.508 81.8585C111.702 83.1444 110.765 84.4655 110.463 85.9833C110.437 86.1144 110.448 86.2959 110.579 86.3211C110.63 86.3312 110.679 86.3111 110.73 86.2909C111.943 85.7312 113.101 85.0858 114.35 84.5613C114.421 84.5311 114.502 84.4907 114.522 84.4151C114.537 84.3495 114.502 84.284 114.466 84.2235C113.998 83.452 113.761 82.4939 113.913 81.5964C114.089 80.5426 114.698 79.8719 115.408 79.1457C115.051 79.0953 114.672 79.2265 114.36 79.4181L114.355 79.4232Z" fill="#E25097"/>
<path d="M102.748 15.8886C101.923 16.2567 101.182 16.8972 100.528 17.4619C100.256 17.6939 99.6718 18.1577 98.8561 18.793C89.6712 26.0138 85.0787 30.436 85.1995 31.9286C85.2045 32.0043 85.2297 32.0547 85.3304 32.1101C85.6678 32.2966 86.5994 32.0193 87.9187 30.9907C88.5583 30.4915 89.2028 29.9922 89.8474 29.488C94.4902 25.8827 99.2892 22.1514 103.187 18.0619C104.35 16.8417 104.662 16.0399 104.461 15.7878C104.28 15.5609 103.534 15.5458 102.753 15.8886H102.748Z" fill="#2B4D9C"/>
<path d="M86.1412 4.59364C85.5369 5.26932 85.124 6.15679 84.7564 6.9434C84.6053 7.26611 84.2579 7.92668 83.7795 8.8444C78.3561 19.2016 75.9744 25.1162 76.6995 26.4272C76.7348 26.4928 76.775 26.5281 76.8908 26.5382C77.2735 26.5684 78.0137 25.9331 78.7943 24.4558C79.1719 23.7397 79.5547 23.0186 79.9374 22.2925C82.6969 17.0988 85.547 11.7287 87.4253 6.39378C87.9842 4.80542 87.9439 3.94317 87.6569 3.79693C87.3951 3.66583 86.7102 3.9583 86.1412 4.58859V4.59364Z" fill="#2B4D9C"/>
<path d="M65.2837 1.38159C65.042 2.25897 65.0672 3.2372 65.0824 4.1045C65.0924 4.46251 65.0722 5.20879 65.0521 6.24248C64.7953 17.9358 65.2888 24.2944 66.5175 25.1465C66.5829 25.1919 66.6333 25.207 66.739 25.1616C67.0966 25.0154 67.4742 24.1228 67.5195 22.4488C67.5397 21.6369 67.5649 20.8201 67.585 20.0032C67.7461 14.1238 67.9173 8.04262 67.2325 2.43041C67.0311 0.756332 66.6081 0.0050119 66.2858 -3.05176e-05C65.9937 -3.05176e-05 65.5103 0.56472 65.2837 1.38664V1.38159Z" fill="#2B4D9C"/>
<path d="M45.8362 4.34154C45.8615 5.24918 46.1636 6.18203 46.4355 7.00395C46.5463 7.34179 46.7477 8.06285 47.0247 9.05621C50.1719 20.3159 52.4883 26.2609 53.9134 26.7147C53.9889 26.74 54.0393 26.7349 54.1299 26.6643C54.432 26.4223 54.5328 25.4541 54.0897 23.8406C53.8731 23.059 53.6566 22.2724 53.4451 21.4807C51.8941 15.808 50.2928 9.93863 48.0117 4.76511C47.3319 3.22213 46.7125 2.62713 46.4003 2.71789C46.1183 2.79857 45.8212 3.48433 45.8413 4.33651L45.8362 4.34154Z" fill="#2B4D9C"/>
<path d="M46.4758 30.0578C46.0931 29.8511 45.8261 29.3872 45.5945 28.9737C45.4988 28.8023 45.2773 28.4796 44.9702 28.0257C41.5157 22.9026 39.995 19.615 40.4582 18.2586C40.4834 18.188 40.5086 18.1426 40.5791 18.077C40.8258 17.8602 41.2941 17.9712 41.7927 18.6972C42.0344 19.0503 42.2761 19.4032 42.5228 19.7612C44.2803 22.3127 46.0981 24.9499 47.2966 28.0459C47.6542 28.9687 47.6289 29.6393 47.4426 29.9015C47.2764 30.1334 46.8384 30.2545 46.4758 30.0629V30.0578Z" fill="#2B4D9C"/>
<path d="M35.3673 37.3492C34.9342 37.3138 34.5012 36.9962 34.1235 36.7189C33.9673 36.6029 33.635 36.3911 33.1718 36.1037C27.9448 32.816 25.2255 30.4208 25.1047 28.9939C25.0997 28.9182 25.1047 28.8678 25.145 28.777C25.281 28.4796 25.7543 28.3888 26.5046 28.8578C26.8672 29.0847 27.2348 29.3065 27.6024 29.5334C30.241 31.1571 32.9653 32.8312 35.3119 35.1809C36.0118 35.8818 36.2586 36.5071 36.1931 36.8147C36.1327 37.092 35.7853 37.3845 35.3724 37.3541L35.3673 37.3492Z" fill="#2B4D9C"/>
<path d="M28.4987 48.629C28.0656 48.6643 27.5923 48.4173 27.1744 48.2004C27.0031 48.1097 26.6405 47.9533 26.137 47.7416C20.4619 45.3061 17.4103 43.3647 17.0628 41.9731C17.0427 41.9024 17.0427 41.847 17.0628 41.7563C17.1535 41.4436 17.6067 41.2772 18.4174 41.62C18.8102 41.7865 19.208 41.9529 19.6059 42.1193C22.4611 43.3093 25.4169 44.5447 28.0959 46.4961C28.8965 47.076 29.2339 47.6559 29.2188 47.9735C29.2037 48.261 28.9015 48.5988 28.4937 48.629H28.4987Z" fill="#2B4D9C"/>
<path d="M24.3594 58.7441C23.9516 58.9055 23.4278 58.8097 22.9646 58.724C22.7732 58.6886 22.3804 58.6483 21.8366 58.5879C15.6982 57.9373 12.2085 56.9844 11.4683 55.759C11.428 55.6934 11.4129 55.6481 11.4079 55.5472C11.4029 55.2194 11.7855 54.9271 12.6668 55.0178C13.0948 55.0581 13.5178 55.1035 13.9509 55.1438C17.0326 55.4363 20.2151 55.7439 23.3523 56.8179C24.289 57.1356 24.7824 57.5894 24.863 57.897C24.9335 58.1743 24.7471 58.5879 24.3644 58.7391L24.3594 58.7441Z" fill="#2B4D9C"/>
<path d="M24.8781 70.9568C24.5609 71.2594 24.0422 71.3704 23.5789 71.4662C23.3876 71.5065 23.0099 71.6174 22.4862 71.7636C16.5493 73.473 12.9589 73.9017 11.8158 73.0444C11.7553 72.999 11.7201 72.9638 11.6799 72.873C11.5489 72.5704 11.8007 72.157 12.6466 71.9099C13.0596 71.7889 13.4675 71.6678 13.8804 71.5418C16.8464 70.6543 19.9131 69.7416 23.2214 69.555C24.2084 69.4996 24.8379 69.7316 25.0241 69.9887C25.1954 70.2206 25.1752 70.6744 24.8781 70.9568Z" fill="#2B4D9C"/>
<path d="M59.0446 24.5112C58.7727 24.1683 58.7123 23.6338 58.6619 23.1649C58.6418 22.9732 58.5662 22.5849 58.4655 22.0455C57.3174 15.9693 57.2167 12.3489 58.1785 11.2849C58.2288 11.2294 58.2691 11.1992 58.3648 11.169C58.677 11.0681 59.0648 11.3555 59.236 12.2228C59.3165 12.6413 59.4021 13.0649 59.4877 13.4884C60.097 16.529 60.7214 19.6704 60.6006 22.9884C60.5654 23.9767 60.2733 24.5869 60.0014 24.7482C59.7547 24.8944 59.3064 24.8339 59.0496 24.5112H59.0446Z" fill="#2B4D9C"/>
<path d="M70.4251 24.8289C70.264 24.4204 70.3596 23.8961 70.4452 23.4321C70.4805 23.2406 70.5207 22.8472 70.5812 22.3027C71.2358 16.156 72.1876 12.6615 73.4162 11.9203C73.4817 11.88 73.527 11.8648 73.6277 11.8598C73.955 11.8547 74.242 12.2379 74.1564 13.1204C74.1111 13.549 74.0708 13.9725 74.0305 14.4062C73.7334 17.4922 73.4263 20.679 72.3486 23.8204C72.0264 24.7583 71.5732 25.2525 71.266 25.3331C70.9891 25.4037 70.5762 25.2171 70.4251 24.834V24.8289Z" fill="#2B4D9C"/>
<path d="M80.3805 28.2072C80.461 27.7737 80.8235 27.3803 81.1408 27.0324C81.2717 26.8913 81.5185 26.5786 81.8559 26.1499C85.6779 21.2941 88.3417 18.8435 89.7769 18.8738C89.8524 18.8738 89.9028 18.8838 89.9883 18.9343C90.2704 19.1007 90.3106 19.5847 89.7667 20.2806C89.5049 20.6184 89.2431 20.9613 88.9762 21.2992C87.0828 23.7498 85.129 26.2861 82.5508 28.3737C81.7803 28.9939 81.1358 29.1754 80.8337 29.0796C80.5617 28.9939 80.3099 28.6107 80.3855 28.2072H80.3805Z" fill="#2B4D9C"/>
<path d="M26.7212 15.102C27.0283 15.9593 27.6074 16.7459 28.1261 17.4417C28.3376 17.7291 28.7555 18.3494 29.3346 19.2065C35.8607 28.9031 39.9295 33.8144 41.4251 33.7993C41.5007 33.7993 41.551 33.7792 41.6165 33.6834C41.828 33.3606 41.6165 32.4076 40.6899 31.0158C40.2367 30.3402 39.7886 29.6594 39.3354 28.9788C36.0823 24.0825 32.7135 19.0199 28.9217 14.8298C27.7937 13.5792 27.0183 13.206 26.7463 13.3926C26.5046 13.5591 26.4391 14.3003 26.7262 15.102H26.7212Z" fill="#2B4D9C"/>
<path d="M13.3164 31.5404C13.9106 32.221 14.7415 32.7455 15.4767 33.2043C15.7788 33.3959 16.3932 33.8195 17.2441 34.4045C26.8622 41.0352 32.4466 44.111 33.8314 43.5463C33.902 43.516 33.9422 43.4808 33.9673 43.3698C34.0429 42.9916 33.5041 42.1798 32.1294 41.2268C31.4647 40.7629 30.7949 40.299 30.1252 39.8301C25.3062 36.4668 20.3209 32.9926 15.2601 30.4814C13.7495 29.7351 12.8934 29.6695 12.7121 29.9419C12.5509 30.184 12.7575 30.8999 13.3164 31.5404Z" fill="#2B4D9C"/>
<path d="M6.614 45.4877C7.31395 46.0625 8.21532 46.4407 9.01599 46.7735C9.3433 46.9096 10.0231 47.2273 10.9547 47.666C21.5295 52.6277 27.5369 54.7456 28.816 53.9639C28.8814 53.9236 28.9167 53.8833 28.9217 53.7673C28.9368 53.3791 28.2721 52.6731 26.7563 51.9571C26.0212 51.6091 25.2859 51.2612 24.5508 50.9082C19.2433 48.382 13.7595 45.77 8.35632 44.1262C6.74493 43.637 5.88889 43.7178 5.75293 44.0102C5.63208 44.2775 5.95433 44.9481 6.614 45.4877Z" fill="#2B4D9C"/>
<path d="M1.24608 63.247C2.07696 63.6051 3.04882 63.711 3.9099 63.8068C4.2624 63.8471 5.00263 63.9631 6.01982 64.1245C17.5564 65.9346 23.9163 66.2927 24.9235 65.1833C24.9738 65.1278 24.9939 65.0774 24.9687 64.9665C24.8731 64.5934 24.0372 64.0941 22.3855 63.832C21.5849 63.7059 20.7792 63.5748 19.9734 63.4437C14.1774 62.5007 8.1801 61.5225 2.53016 61.452C0.848267 61.4318 0.0476138 61.7445 0.00229345 62.0672C-0.0379913 62.3546 0.455492 62.9143 1.24104 63.247H1.24608Z" fill="#2B4D9C"/>
<path d="M8.0391 86.6237H8.04414C8.93041 86.4572 9.80158 86.0085 10.572 85.6101C10.8893 85.4437 11.564 85.1311 12.5057 84.7025C23.1106 79.8013 28.5994 76.5691 28.8261 75.0866C28.8361 75.0109 28.8261 74.9556 28.7405 74.8799C28.4534 74.6227 27.4815 74.6732 25.9608 75.369C25.2256 75.7068 24.4803 76.0446 23.735 76.3825C18.3872 78.818 12.8582 81.3341 8.11969 84.41C6.70973 85.3277 6.21624 86.0337 6.35723 86.3262C6.48312 86.5883 7.20319 86.7749 8.0391 86.6237Z" fill="#2B4D9C"/>
<path d="M34.3199 84.3445C29.8029 76.9473 28.4534 67.7953 30.1756 59.324C35.1054 33.8851 65.5255 20.7093 87.0224 35.5289C87.6669 35.9827 88.9611 36.9609 89.5704 37.4702L90.7588 38.5292C91.1415 38.8972 91.5192 39.2704 91.8919 39.6435C91.4386 39.3662 90.9954 39.0838 90.5523 38.8014C89.8776 38.3929 88.5129 37.6367 87.818 37.2685C74.8363 30.4259 58.1684 31.5151 46.6167 40.6923C33.348 50.9083 28.8663 68.6928 34.3248 84.3445H34.3199Z" fill="#2B4D9C"/>
<path d="M89.8221 108.316C89.7667 108.12 89.7667 107.908 89.8221 107.686C89.8624 107.534 90.0135 107.343 90.2703 107.111C90.5271 106.879 90.8494 106.622 91.2271 106.339L91.5745 106.057C93.1406 104.746 94.2938 103.747 95.0391 103.062C95.7843 102.376 96.1972 101.862 96.2878 101.529C96.3282 101.378 96.2526 101.242 96.0562 101.121C95.8598 101.005 95.6785 100.924 95.5073 100.879C95.0793 100.768 94.6009 100.768 94.0772 100.879C93.5535 100.99 93.0399 101.181 92.5414 101.443C92.3702 101.534 92.2241 101.564 92.1032 101.529C91.9824 101.499 91.8968 101.423 91.8464 101.302C91.7961 101.181 91.7911 101.05 91.8263 100.909C91.8666 100.747 91.9321 100.586 92.0227 100.42C92.1133 100.258 92.2141 100.082 92.3299 99.9054L92.3652 99.855C92.481 99.6835 92.6874 99.5272 92.9946 99.3861C93.2967 99.2449 93.6644 99.144 94.0873 99.0784C94.5103 99.0129 94.9535 99.0129 95.4116 99.0632C95.6533 99.0885 95.9153 99.139 96.2073 99.2146C96.8216 99.376 97.2346 99.6684 97.4561 100.102C97.6777 100.536 97.713 101.04 97.5619 101.625C97.4813 101.937 97.2496 102.336 96.867 102.81C96.4843 103.289 96.0814 103.718 95.6584 104.106C95.1952 104.534 94.7872 104.887 94.4398 105.169C94.0873 105.452 93.6744 105.77 93.196 106.127L92.5162 106.642C93.2161 106.566 93.8657 106.516 94.4599 106.496C95.0541 106.47 95.6282 106.491 96.1821 106.551C96.2828 106.566 96.3634 106.637 96.4288 106.753C96.4943 106.868 96.5044 107 96.4691 107.146C96.4238 107.328 96.3281 107.519 96.1821 107.736C96.0411 107.948 95.885 108.125 95.7188 108.27C95.5527 108.417 95.4167 108.482 95.3059 108.473C95.0843 108.453 94.2484 108.482 92.7931 108.563C92.1536 108.608 91.5644 108.639 91.0156 108.659C90.8897 108.659 90.7587 108.669 90.6228 108.674C90.502 108.68 90.3962 108.685 90.3156 108.69C90.23 108.69 90.1646 108.69 90.1192 108.674C89.9782 108.639 89.8825 108.523 89.8271 108.326L89.8221 108.316Z" fill="#2B4D9C"/>
<path d="M98.1309 110.056C97.7936 109.692 97.5619 109.204 97.436 108.584C97.3151 107.963 97.3151 107.257 97.4511 106.46C97.6324 105.381 98.0303 104.389 98.6547 103.486C99.279 102.583 99.989 101.862 100.795 101.327C101.595 100.788 102.341 100.5 103.021 100.46C103.282 100.435 103.534 100.44 103.785 100.475C104.571 100.566 105.155 100.939 105.528 101.584C105.906 102.23 105.992 103.173 105.79 104.413C105.578 105.694 105.131 106.834 104.45 107.833C103.771 108.825 102.975 109.576 102.069 110.081C101.162 110.585 100.266 110.787 99.3898 110.686C98.8964 110.631 98.4784 110.419 98.141 110.061L98.1309 110.056ZM102.034 108.352C102.638 108.049 103.166 107.595 103.625 106.99C104.083 106.385 104.375 105.679 104.511 104.882C104.637 104.121 104.582 103.526 104.345 103.102C104.108 102.673 103.741 102.427 103.243 102.361C102.733 102.301 102.124 102.442 101.404 102.784C100.684 103.127 100.039 103.622 99.4704 104.267C98.9014 104.913 98.5488 105.639 98.418 106.436C98.287 107.222 98.4079 107.782 98.7856 108.104C99.1582 108.432 99.6769 108.634 100.336 108.709C100.875 108.775 101.444 108.654 102.044 108.352H102.034Z" fill="#2B4D9C"/>
<path d="M105.84 111.775C105.745 111.594 105.704 111.387 105.719 111.155C105.73 110.999 105.84 110.782 106.047 110.505C106.253 110.227 106.521 109.914 106.833 109.561L107.12 109.214C108.399 107.625 109.335 106.421 109.934 105.598C110.534 104.776 110.841 104.196 110.86 103.853C110.871 103.697 110.77 103.576 110.553 103.501C110.342 103.425 110.146 103.38 109.97 103.37C109.526 103.344 109.059 103.435 108.57 103.646C108.076 103.858 107.613 104.146 107.174 104.499C107.024 104.62 106.888 104.676 106.762 104.671C106.636 104.66 106.535 104.605 106.465 104.499C106.395 104.393 106.359 104.267 106.369 104.116C106.379 103.95 106.41 103.778 106.465 103.597C106.521 103.42 106.586 103.228 106.666 103.032L106.691 102.977C106.772 102.784 106.949 102.593 107.215 102.391C107.487 102.195 107.824 102.023 108.227 101.877C108.631 101.736 109.064 101.645 109.521 101.605C109.763 101.579 110.03 101.579 110.333 101.595C110.962 101.63 111.43 101.842 111.732 102.22C112.034 102.598 112.165 103.093 112.13 103.692C112.11 104.015 111.959 104.449 111.682 104.988C111.399 105.528 111.092 106.032 110.751 106.496C110.377 107.005 110.05 107.428 109.758 107.777C109.466 108.125 109.124 108.518 108.721 108.956L108.152 109.592C108.827 109.38 109.451 109.209 110.03 109.067C110.609 108.931 111.174 108.835 111.727 108.785C111.827 108.785 111.923 108.83 112.009 108.936C112.095 109.037 112.134 109.163 112.125 109.315C112.115 109.501 112.059 109.713 111.959 109.945C111.858 110.182 111.742 110.384 111.611 110.56C111.481 110.732 111.355 110.828 111.249 110.838C111.027 110.862 110.212 111.055 108.801 111.417C108.187 111.584 107.613 111.735 107.079 111.861C106.953 111.891 106.828 111.922 106.697 111.951C106.581 111.982 106.48 112.007 106.395 112.023C106.314 112.042 106.248 112.047 106.198 112.047C106.057 112.037 105.936 111.941 105.84 111.76V111.775Z" fill="#2B4D9C"/>
<path d="M117.901 111.094C117.855 110.944 117.81 110.661 117.765 110.252L117.739 110.015C117.669 109.153 117.589 108.412 117.488 107.787C117.055 107.877 116.526 108.069 115.907 108.357C115.288 108.644 114.793 108.936 114.426 109.224C114.305 109.32 114.164 109.37 114.008 109.38C113.847 109.385 113.71 109.345 113.591 109.254C113.47 109.163 113.403 109.032 113.394 108.856C113.384 108.709 113.389 108.497 113.398 108.231C113.414 107.963 113.429 107.681 113.444 107.378L113.47 107.01C113.475 106.935 113.48 106.864 113.48 106.798C113.519 106.148 113.555 105.558 113.575 105.019C113.596 104.479 113.61 103.914 113.61 103.329C113.61 102.946 113.701 102.623 113.877 102.356C114.053 102.089 114.265 101.942 114.507 101.917C114.602 101.908 114.658 101.942 114.683 102.024C114.703 102.104 114.718 102.21 114.718 102.341V102.356L114.653 104.363C114.643 104.711 114.628 105.058 114.607 105.417L114.597 105.905C114.597 106.138 114.597 106.375 114.597 106.607C114.955 106.45 115.327 106.264 115.711 106.057C115.866 105.967 116.018 105.886 116.168 105.815C116.32 105.745 116.48 105.664 116.657 105.583L117.176 105.347C117.135 105.043 117.105 104.751 117.075 104.474C117.045 104.196 117.019 103.935 116.994 103.682L116.893 102.714L116.743 101.388C116.732 101.287 116.768 101.166 116.848 101.035C116.929 100.899 117.029 100.783 117.15 100.677C117.271 100.571 117.372 100.516 117.463 100.505C117.548 100.495 117.619 100.521 117.669 100.581C117.72 100.642 117.749 100.722 117.759 100.823L117.931 102.456C117.971 102.89 118.051 103.713 118.177 104.923H118.218C118.404 104.882 118.545 104.862 118.636 104.867C118.726 104.867 118.807 104.932 118.873 105.043C118.938 105.159 118.984 105.361 119.013 105.644C119.059 106.067 119.028 106.41 118.928 106.672C118.827 106.935 118.681 107.111 118.489 107.196C118.686 108.427 118.827 109.451 118.912 110.273C118.933 110.464 118.897 110.636 118.812 110.787C118.726 110.939 118.616 111.055 118.484 111.145C118.354 111.236 118.249 111.282 118.167 111.291C118.037 111.306 117.951 111.236 117.906 111.079L117.901 111.094Z" fill="#2B4D9C"/>
</g>
<defs>
<clipPath id="clip0_310_6">
<rect width="121" height="113" fill="white"/>
</clipPath>
</defs>
</svg>
