<svg width="139" height="113" viewBox="0 0 139 113" fill="none" xmlns="http://www.w3.org/2000/svg">
<g clip-path="url(#clip0_310_37)">
<path d="M113.279 32.7135V32.6947C113.272 32.6647 113.263 32.6352 113.253 32.6065C113.215 32.4995 113.192 32.4488 113.161 32.3774C113.129 32.3061 113.102 32.246 113.072 32.1897C113.01 32.0658 112.945 31.9457 112.885 31.8293C112.747 31.5939 112.597 31.3664 112.434 31.1479C112.271 30.9266 112.094 30.7159 111.905 30.5172C111.714 30.3137 111.513 30.1213 111.3 29.9409C111.086 29.7562 110.861 29.5856 110.624 29.4303C110.508 29.3496 110.384 29.2745 110.26 29.2031C110.136 29.1318 110.014 29.0586 109.885 28.9929C109.755 28.9272 109.626 28.8634 109.493 28.8052C109.359 28.747 109.23 28.6869 109.093 28.64C108.822 28.5349 108.546 28.4523 108.269 28.3734C107.991 28.2946 107.705 28.2345 107.428 28.1857C107.15 28.1369 106.864 28.1219 106.579 28.0937H106.489C106.901 27.7191 107.289 27.3192 107.651 26.8961C108.149 26.3144 108.589 25.6858 108.965 25.0189C109.4 24.2252 109.716 23.3721 109.904 22.4866C110.002 21.9981 110.057 21.5018 110.067 21.0037C110.069 20.4797 110.021 19.9568 109.924 19.4419C109.707 18.3446 109.279 17.2999 108.665 16.3652C108.344 15.8704 107.98 15.4054 107.576 14.9761C107.363 14.7437 107.135 14.526 106.893 14.3247L106.189 13.7822C105.209 13.0552 104.136 12.4641 102.997 12.0252C100.751 11.1744 98.2912 11.0658 95.9787 11.7154C95.034 11.9808 94.1232 12.3543 93.2643 12.8286C92.5687 13.2108 91.9063 13.6503 91.2838 14.1426C90.929 14.4186 90.6268 14.6851 90.3602 14.9329C90.3114 14.7902 90.2439 14.6513 90.1857 14.5068C90.1246 14.3534 90.0512 14.2052 89.966 14.0638C89.6126 13.454 89.1507 12.9139 88.6032 12.4701L88.3911 12.2955L88.1621 12.1359C88.0138 12.0252 87.8504 11.9294 87.6853 11.8299C87.5074 11.724 87.3231 11.6294 87.1334 11.5465C86.9625 11.4733 86.7898 11.4151 86.6171 11.3588C85.9033 11.0973 85.1577 10.9325 84.4002 10.8688C83.6306 10.805 82.8558 10.8748 82.11 11.0753C81.7278 11.1823 81.3568 11.3263 81.0025 11.5052C81.0025 11.4076 81.0025 11.3062 80.9912 11.1992C80.9776 10.5932 80.9199 9.98907 80.8185 9.3915C80.6833 8.59843 80.4701 7.82064 80.1821 7.06944C79.8152 6.14538 79.3239 5.27573 78.7217 4.48457C78.0056 3.55151 77.1382 2.74505 76.1556 2.09869C75.058 1.37855 73.8546 0.834475 72.5889 0.486202C71.931 0.302943 71.2602 0.169289 70.5822 0.0863647C70.2349 0.045067 69.8895 0.0112779 69.516 0.00189209H69.2381H68.9847L68.4779 0.0206638C67.1165 0.0701675 65.767 0.294127 64.4626 0.687059C63.2035 1.07146 62.0231 1.67726 60.9766 2.476C60.0487 3.19106 59.2593 4.0696 58.6471 5.06837C58.135 5.90492 57.7462 6.81089 57.4926 7.75836C57.2816 8.52734 57.1464 9.31513 57.089 10.1105C57.0502 10.6188 57.0427 11.1291 57.0665 11.6385C56.9671 11.5895 56.8642 11.5481 56.7586 11.5146C56.051 11.2533 55.3067 11.105 54.5529 11.0753H54.262H53.971C53.7833 11.0753 53.5805 11.0997 53.3834 11.1185C53.1722 11.142 52.9623 11.1764 52.7546 11.2217C52.5669 11.2649 52.3979 11.3193 52.2196 11.37C51.5004 11.5764 50.8132 11.8808 50.1772 12.2748C49.5624 12.6588 49.0286 13.1594 48.606 13.7484C48.3679 14.0871 48.1754 14.4557 48.0335 14.8447C47.9903 14.7977 47.9509 14.7527 47.902 14.7058C47.5009 14.2716 47.0713 13.8646 46.6162 13.4875C46.0013 12.9811 45.3437 12.5288 44.6508 12.1359C42.7753 11.0735 40.6347 10.5706 38.4823 10.6867C37.2465 10.751 36.0284 11.0088 34.8725 11.4508C34.2887 11.6727 33.7237 11.9414 33.183 12.2542C32.9026 12.4136 32.6323 12.5904 32.374 12.7835L31.6888 13.3467C30.791 14.0984 30.008 14.9775 29.3648 15.956C28.7578 16.8965 28.3472 17.95 28.1578 19.0533C27.9935 20.0592 28.0254 21.0874 28.2517 22.0812C28.4543 22.9577 28.7764 23.8022 29.209 24.5909C29.5703 25.2532 29.9906 25.8815 30.4649 26.4681C30.8323 26.923 31.2279 27.3543 31.6494 27.7596C31.7132 27.8234 31.7733 27.8797 31.8371 27.9361C31.7526 27.9454 31.6681 27.953 31.5855 27.968C31.3021 28.0093 31.0224 28.0806 30.7427 28.1557C30.463 28.2308 30.1889 28.3171 29.9205 28.4222C29.7834 28.4692 29.652 28.5292 29.5206 28.5874C29.3892 28.6456 29.256 28.7057 29.1283 28.7752C29.0007 28.8446 28.873 28.9084 28.7529 28.9854C28.6327 29.0624 28.507 29.1318 28.3906 29.2125C28.1545 29.3679 27.9287 29.5384 27.7148 29.7231C27.5023 29.9041 27.2999 30.0964 27.1085 30.2994C26.9187 30.4982 26.7419 30.7088 26.5791 30.9301C26.4166 31.1479 26.2668 31.3747 26.1304 31.6097C26.061 31.7279 25.9953 31.8481 25.9333 31.972C25.9033 32.0339 25.8733 32.0996 25.8451 32.1597C25.8169 32.2198 25.7925 32.2817 25.7531 32.3887C25.7531 32.4169 25.7344 32.4507 25.7268 32.4807V32.4957C25.5049 33.5274 25.4316 34.5856 25.5091 35.6381C25.5951 36.7154 25.8689 37.7694 26.3182 38.7523C26.778 39.7479 27.3842 40.6691 28.1165 41.4855C28.8603 42.3123 29.6925 43.055 30.5981 43.7005C31.492 44.3489 32.4332 44.9294 33.4139 45.4369C34.3979 45.9445 35.4073 46.4013 36.4381 46.8054C37.4668 47.2146 38.5142 47.5694 39.5692 47.8979C40.6242 48.2264 41.6886 48.5155 42.7604 48.7726C42.8074 48.7858 42.8543 48.7952 42.9031 48.8064C46.8252 49.886 50.8193 50.684 54.8551 51.1942C59.5727 51.7995 64.3242 52.1023 69.0805 52.1009C71.7936 52.1009 74.5049 52.0026 77.2143 51.8062C82.3127 51.4307 87.6796 50.8263 92.795 49.7413C93.9419 49.5216 95.0851 49.2776 96.2208 49.0017C97.2927 48.7426 98.3571 48.4479 99.412 48.125C100.467 47.8021 101.514 47.4436 102.541 47.0325C103.573 46.6308 104.583 46.174 105.565 45.6641C106.556 45.1578 107.507 44.5767 108.409 43.9258C109.311 43.2807 110.141 42.5399 110.884 41.7164C111.619 40.897 112.227 39.9719 112.688 38.9719C113.136 37.9872 113.409 36.9323 113.497 35.854C113.574 34.8021 113.501 33.7446 113.279 32.7135ZM111.173 35.7038C111.098 36.5702 110.878 37.418 110.523 38.2117C109.81 39.8148 108.513 41.2152 106.956 42.379C105.311 43.5587 103.53 44.5368 101.652 45.2924C100.767 45.6678 99.8607 46.0019 98.9409 46.3173C91.8076 48.5943 84.464 49.2795 77.0998 49.8182C69.8201 50.3513 62.5103 49.9478 55.285 49.2363C51.3464 48.8439 47.4432 48.1537 43.6089 47.1714L43.3349 47.0963C41.3011 46.5474 39.3042 45.8702 37.356 45.069C35.478 44.3138 33.6976 43.3356 32.053 42.1556C30.4893 40.9918 29.1921 39.5914 28.4863 37.9883C28.1275 37.1946 27.9048 36.3461 27.8274 35.4785C27.7613 34.6216 27.8163 33.7597 27.9907 32.9181L28.0076 32.873L28.0621 32.7491C28.1015 32.6628 28.1428 32.5764 28.1878 32.4901C28.2803 32.3141 28.3818 32.143 28.4919 31.9776C28.6064 31.8124 28.7247 31.6491 28.8524 31.4914C28.9804 31.3321 29.1177 31.1804 29.2635 31.0371C29.4099 30.8926 29.5601 30.7518 29.7215 30.6204C29.8003 30.5528 29.8848 30.4909 29.9693 30.4327C30.0523 30.3656 30.1388 30.303 30.2283 30.245C30.3147 30.183 30.4029 30.1248 30.4968 30.0704C30.5906 30.016 30.6845 29.9578 30.7765 29.9108C30.9642 29.8038 31.1651 29.7231 31.3678 29.6255C31.5705 29.5279 31.7845 29.4641 32.0042 29.4021C32.2238 29.3402 32.4453 29.2726 32.6687 29.2144C32.8921 29.1562 33.1286 29.1112 33.367 29.083C33.6054 29.0549 33.8419 29.0154 34.086 28.9891C34.33 28.9629 34.574 28.9516 34.8218 28.9347L35.5727 28.9141L36.3236 28.9235C36.5845 28.9347 36.8454 28.9516 37.1082 28.9554C37.1351 28.957 37.1619 28.9509 37.1854 28.938C37.209 28.925 37.2285 28.9057 37.2415 28.8822C37.2491 28.8668 37.2533 28.85 37.2539 28.8328C37.2544 28.8157 37.2513 28.7987 37.2447 28.7828C37.2381 28.767 37.2282 28.7528 37.2157 28.7411C37.2032 28.7294 37.1883 28.7205 37.1721 28.7151C36.9336 28.6156 36.6915 28.5274 36.4493 28.4391C36.2072 28.3509 35.9406 28.2871 35.6834 28.212C35.4263 28.1369 35.1635 28.0825 34.8969 28.0374C34.6303 27.9924 34.3638 27.9436 34.0897 27.921L33.6786 27.8779L33.2619 27.8647C33.0085 27.8516 32.7513 27.8647 32.4941 27.8741C32.3984 27.7371 32.2951 27.5832 32.1787 27.4105C31.9253 27.035 31.6456 26.5526 31.3509 26.0045C31.0299 25.3996 30.7532 24.7722 30.5231 24.1273C30.2592 23.3941 30.0827 22.6323 29.9974 21.8578C29.8099 20.122 30.2728 18.3783 31.2965 16.964C31.8676 16.1678 32.5411 15.4502 33.2994 14.8297L33.8982 14.3529C34.085 14.2169 34.2793 14.0915 34.4802 13.9774C35.7638 13.2234 37.191 12.7463 38.67 12.5771C39.5999 12.4704 40.5401 12.4944 41.4633 12.6484C42.3053 12.7902 43.1306 13.0179 43.9262 13.3279C44.3016 13.4818 44.6601 13.6226 44.9887 13.7916C45.3172 13.9605 45.6344 14.1163 45.9272 14.2721C46.5054 14.5969 47.0066 14.8991 47.4046 15.1675C47.5679 15.2727 47.7106 15.3703 47.842 15.4604C47.842 15.4698 47.842 15.481 47.842 15.4923C47.7292 16.0144 47.7 16.551 47.7556 17.0823C47.7972 17.5135 47.8853 17.939 48.0184 18.3512C48.1198 18.6664 48.2453 18.9733 48.3939 19.2692C48.4887 19.4628 48.5947 19.6508 48.7111 19.8323C48.7918 19.9581 48.8425 20.02 48.8425 20.02C48.8581 20.0395 48.8783 20.0548 48.9012 20.0646C48.9241 20.0744 48.9491 20.0785 48.9739 20.0763C49.0099 20.0754 49.0441 20.0602 49.0691 20.0342C49.094 20.0082 49.1077 19.9735 49.1072 19.9374C49.1072 19.9374 49.1072 19.8661 49.0884 19.7291C49.0697 19.592 49.064 19.3931 49.049 19.1434C49.034 18.8937 49.049 18.5802 49.049 18.2461C49.0636 17.868 49.1063 17.4916 49.1767 17.1198C49.2536 16.704 49.3797 16.2989 49.5521 15.9128C49.7379 15.5048 49.9875 15.129 50.2917 14.7996C50.6223 14.4469 51.0085 14.1508 51.4349 13.923C51.9116 13.6685 52.4153 13.4683 52.9367 13.326C53.0756 13.2904 53.2126 13.2472 53.3496 13.219C53.4229 13.2059 53.5712 13.1759 53.695 13.1609C53.8189 13.1458 53.956 13.1289 54.0893 13.1252C54.2225 13.1214 54.3558 13.112 54.4891 13.1139H54.6881L54.8758 13.1271C55.0059 13.1322 55.1356 13.1441 55.2644 13.1627L55.6398 13.2153L56.0152 13.3016C56.1368 13.3261 56.2561 13.3606 56.3719 13.4049C56.4864 13.4443 56.6084 13.4743 56.7192 13.5213C56.8299 13.5682 56.9369 13.6208 57.0458 13.6677C57.1567 13.7092 57.263 13.7621 57.3631 13.8254C57.4626 13.8873 57.5639 13.9436 57.6653 13.9999C57.767 14.0518 57.8627 14.1148 57.9506 14.1877C58.1271 14.3247 58.3129 14.4467 58.4781 14.58C58.7769 14.8377 59.0597 15.1136 59.3247 15.4059C59.5452 15.6306 59.752 15.8681 59.9442 16.1174C60.2614 16.536 60.4754 16.7782 60.4754 16.7782L60.4848 16.7894C60.5013 16.8062 60.5213 16.8191 60.5434 16.8272C60.5655 16.8353 60.5891 16.8384 60.6125 16.8364C60.6301 16.8359 60.6475 16.8319 60.6637 16.8246C60.6798 16.8173 60.6943 16.8069 60.7063 16.794C60.7184 16.7811 60.7277 16.7659 60.7339 16.7493C60.74 16.7327 60.7428 16.7151 60.742 16.6974C60.742 16.6974 60.7082 16.399 60.5956 15.8677C60.5693 15.7201 60.5323 15.5745 60.4848 15.4322L60.2971 14.9273C60.138 14.5125 59.9361 14.1156 59.6945 13.7428C59.5444 13.54 59.3679 13.3354 59.1877 13.1196C59.0952 13.0073 58.9921 12.9042 58.8798 12.8117C58.7691 12.7122 58.6564 12.6108 58.5363 12.5095C58.4155 12.4044 58.2861 12.3096 58.1496 12.226C58.022 12.1434 57.8906 12.0552 57.7573 11.9726C57.7573 11.9632 57.7573 11.9538 57.7573 11.9444C57.8492 11.3712 57.9701 10.8029 58.1196 10.2419C58.3108 9.52047 58.5562 8.81453 58.8536 8.13004C59.1995 7.32911 59.6407 6.57279 60.1676 5.87743C60.7607 5.10623 61.4729 4.43453 62.2775 3.88763C63.1648 3.29446 64.1433 2.85058 65.174 2.57361C66.2866 2.27634 67.43 2.11002 68.5811 2.07804L69.0242 2.0649H69.2457H69.4428C69.7018 2.0649 69.9871 2.09306 70.265 2.12685C70.8243 2.19182 71.3787 2.29404 71.9244 2.43283C72.4578 2.56841 72.981 2.74154 73.49 2.95093C73.9822 3.14534 74.458 3.37885 74.9129 3.64923C75.7673 4.14229 76.5441 4.75905 77.2181 5.47947C77.819 6.12255 78.3443 6.83237 78.7836 7.59504L79.0709 8.12253C79.1685 8.29523 79.2379 8.47356 79.3205 8.64251C79.4913 8.97852 79.6134 9.31265 79.7391 9.62614C79.9757 10.255 80.1634 10.8163 80.291 11.2874C80.3511 11.4883 80.398 11.6629 80.4412 11.8318C80.3774 11.8731 80.3117 11.9125 80.2535 11.9538C79.7896 12.2794 79.3732 12.668 79.0164 13.1083C78.7333 13.452 78.4861 13.8237 78.2787 14.2177C78.1254 14.5112 77.9937 14.8155 77.8845 15.1281C77.8156 15.326 77.7585 15.5279 77.7136 15.7326C77.6963 15.805 77.6831 15.8783 77.6742 15.9522C77.6716 15.9754 77.6757 15.9989 77.686 16.0199C77.6963 16.0408 77.7124 16.0584 77.7324 16.0705C77.7642 16.0904 77.8022 16.0984 77.8393 16.0929C77.8765 16.0874 77.9105 16.0688 77.9352 16.0404L78.0741 15.8715C78.1604 15.7589 78.305 15.6012 78.4777 15.4022C78.6504 15.2032 78.8813 14.9761 79.1422 14.7245C79.4345 14.4494 79.7422 14.1912 80.0639 13.9511C80.4319 13.6802 80.8255 13.4457 81.239 13.251C81.679 13.0495 82.1445 12.9093 82.6225 12.8342C83.1252 12.7581 83.6365 12.7581 84.1393 12.8342C84.6803 12.9142 85.211 13.0533 85.7217 13.2491C85.8531 13.3016 85.9902 13.3486 86.1141 13.4049C86.1798 13.4368 86.313 13.5006 86.4182 13.5588C86.5233 13.617 86.6397 13.6865 86.7448 13.7597C86.8499 13.8329 86.955 13.9023 87.0545 13.9793L87.2085 14.0919L87.3474 14.2158C87.4417 14.2937 87.5313 14.377 87.6158 14.4655L87.8673 14.7245L88.0813 15.0024C88.1535 15.0902 88.2164 15.1851 88.2691 15.2858C88.3273 15.3834 88.3967 15.4735 88.4455 15.5749C88.4943 15.6763 88.5394 15.7739 88.5863 15.8734C88.6397 15.9687 88.6813 16.0702 88.7102 16.1756C88.7402 16.2788 88.7759 16.3802 88.8097 16.4816C88.8492 16.5791 88.8764 16.6813 88.8904 16.7857C88.9223 16.9903 88.9749 17.1911 88.9993 17.3882C89.0363 17.7574 89.047 18.1288 89.0312 18.4995C89.0323 18.7995 89.0135 19.0993 88.9749 19.3968C88.9073 19.898 88.8904 20.204 88.8904 20.204V20.2171C88.8897 20.239 88.895 20.2606 88.9055 20.2798C88.9161 20.299 88.9316 20.3149 88.9505 20.326C88.982 20.3458 89.0196 20.3537 89.0565 20.3482C89.0933 20.3427 89.127 20.3242 89.1513 20.296C89.1513 20.296 89.3391 20.0501 89.6525 19.5827C89.7414 19.4568 89.8217 19.3251 89.8928 19.1884C89.9642 19.0364 90.0392 18.8712 90.1218 18.6966C90.2983 18.2942 90.4305 17.8737 90.5161 17.4427C90.5536 17.2024 90.5724 16.9452 90.593 16.6787C90.6071 16.5426 90.6071 16.4055 90.593 16.2694C90.5818 16.1287 90.5724 15.986 90.5555 15.8415C90.5517 15.7853 90.5441 15.7295 90.5329 15.6744C90.9084 15.4322 91.3645 15.1675 91.8883 14.8841C92.544 14.5297 93.2211 14.2162 93.9156 13.9455C94.7241 13.6308 95.5607 13.3938 96.4142 13.2378C97.3432 13.0722 98.2903 13.0324 99.23 13.1196C100.209 13.2146 101.167 13.4589 102.072 13.8441C103.003 14.2411 103.882 14.7505 104.689 15.3609L105.291 15.8321C105.464 15.9799 105.63 16.1366 105.787 16.3014C106.112 16.6437 106.41 17.0115 106.677 17.4014C107.188 18.1374 107.569 18.9559 107.803 19.8211C108.024 20.6207 108.1 21.4537 108.026 22.2801C107.959 23.0489 107.794 23.8059 107.535 24.5327C107.401 24.8763 107.283 25.2104 107.127 25.5164C106.971 25.8224 106.833 26.1171 106.688 26.3911C106.386 26.9355 106.099 27.4067 105.84 27.7859C105.768 27.8966 105.701 27.998 105.635 28.0937L105.306 28.105L104.895 28.1482C104.621 28.1707 104.353 28.2251 104.086 28.2646C103.82 28.304 103.561 28.3791 103.302 28.4391C103.043 28.4992 102.785 28.5856 102.534 28.6663C102.282 28.747 102.051 28.8446 101.811 28.9422C101.787 28.951 101.766 28.9668 101.752 28.9876C101.737 29.0083 101.729 29.0331 101.728 29.0586C101.73 29.0764 101.735 29.0937 101.743 29.1096C101.751 29.1254 101.762 29.1395 101.776 29.151C101.79 29.1625 101.805 29.1713 101.822 29.1767C101.839 29.1821 101.857 29.184 101.875 29.1825C102.14 29.1825 102.399 29.1618 102.661 29.1506L103.412 29.1412L104.163 29.1619C104.411 29.1787 104.659 29.1825 104.901 29.2163C105.143 29.2501 105.383 29.2726 105.62 29.3101C105.856 29.3477 106.087 29.3984 106.318 29.4415C106.549 29.4847 106.769 29.5561 106.981 29.6293C107.193 29.7025 107.409 29.7757 107.617 29.8545C107.82 29.9388 108.018 30.0334 108.21 30.138C108.308 30.1849 108.398 30.2431 108.49 30.2975C108.582 30.352 108.678 30.4102 108.759 30.4721C108.848 30.5297 108.934 30.5923 109.016 30.6598C109.102 30.7218 109.187 30.7837 109.264 30.8475C109.424 30.9781 109.577 31.1172 109.722 31.2643C109.868 31.4075 110.006 31.5592 110.135 31.7186C110.262 31.8762 110.38 32.0396 110.493 32.2047C110.604 32.3702 110.706 32.5412 110.799 32.7172C110.844 32.8036 110.885 32.8899 110.923 32.9763L110.979 33.102L110.996 33.1452C111.174 33.9857 111.233 34.8469 111.173 35.7038Z" fill="#996532"/>
<path d="M22.4962 66.4331C23.1145 64.918 23.4209 63.2938 23.3972 61.6575C23.3972 60.1051 23.1119 58.7723 22.5488 57.6986C22.0082 56.646 21.2068 55.7496 20.221 55.095C19.216 54.4461 18.0957 53.9962 16.921 53.7697C15.6654 53.5163 14.3874 53.3905 13.1065 53.3942C12.1154 53.3942 11.066 53.4374 9.98663 53.5238C8.90725 53.6101 7.83913 53.7209 6.78603 53.856C5.73293 53.9912 4.69297 54.1489 3.69243 54.3103C2.69188 54.4717 1.76831 54.6257 0.925453 54.7796L0 54.9485L0.418613 58.0571L1.40414 57.9126C2.10483 57.8016 2.81231 57.7389 3.5216 57.7249C3.78434 57.7168 4.04698 57.744 4.30251 57.8056C4.37565 57.8208 4.44396 57.8537 4.50149 57.9013C4.54852 57.964 4.58062 58.0365 4.59535 58.1134C4.64509 58.3567 4.66776 58.6048 4.66293 58.8531C4.66293 61.0625 4.64416 63.2531 4.60849 65.3668C4.57283 67.4805 4.5259 69.6412 4.46958 71.8018C4.41326 73.9624 4.33818 76.2056 4.24807 78.4807C4.15797 80.7559 4.06035 83.1943 3.95523 85.751L3.91581 86.669L5.18667 86.8098L9.30521 86.2898L9.51921 79.3311C9.58053 77.285 9.6381 75.2921 9.69191 73.3523C9.69191 73.1383 9.70505 72.9243 9.71068 72.7122L9.74072 72.7366C10.073 72.99 10.5254 73.112 11.128 73.112C12.7968 73.1294 14.457 72.8693 16.0406 72.3424C17.4838 71.8611 18.8133 71.0894 19.947 70.0748C21.0524 69.0615 21.9225 67.8185 22.4962 66.4331ZM9.85335 67.7771C9.90591 65.9988 9.95284 64.3626 9.99414 62.8683L10.1011 58.9037C10.1199 58.1792 10.1368 57.5465 10.1518 57.0059L10.6812 56.9571C11.0867 56.9252 11.5165 56.9083 11.9577 56.9083C12.7684 56.9038 13.5767 56.999 14.3642 57.1918C15.0192 57.3478 15.6307 57.6494 16.1532 58.074C16.6793 58.5263 17.0866 59.1006 17.3396 59.7466C17.6493 60.4806 17.8051 61.436 17.8051 62.5943C17.8014 63.1004 17.772 63.606 17.7169 64.1091C17.6574 64.6542 17.5384 65.1911 17.3621 65.7104C17.1751 66.2571 16.9163 66.7767 16.5924 67.2553C16.248 67.7572 15.8133 68.1907 15.3103 68.5336C14.6721 68.9577 13.9689 69.2747 13.2285 69.4722C12.2166 69.7404 11.1723 69.8668 10.1255 69.8476H9.7914C9.81268 69.1443 9.83333 68.4542 9.85335 67.7771Z" fill="#412013"/>
<path d="M115.295 66.8442C115.116 66.4676 114.865 66.1301 114.555 65.8511C114.238 65.5711 113.871 65.3544 113.472 65.2129C113.06 65.0649 112.624 64.9906 112.186 64.9933C110.996 64.995 109.843 65.4074 108.922 66.1609C107.939 66.9709 107.109 67.9499 106.47 69.0517C106.128 69.6268 105.814 70.2188 105.532 70.8256C105.552 70.5253 105.571 70.2475 105.588 69.9903L105.661 68.8021C105.686 68.3985 105.689 68.2671 105.689 68.1957C105.689 67.2947 105.502 66.602 105.115 66.0802C104.807 65.6634 104.199 65.166 103.061 65.166C102.804 65.166 102.31 65.2035 100.974 65.5208C99.7199 65.841 98.4841 66.2289 97.2721 66.6827L96.4686 66.9718L96.5005 67.1276C95.9874 66.6299 95.4089 66.2042 94.781 65.8624C93.7043 65.2893 92.4996 64.9993 91.2801 65.0196C90.1971 65.0119 89.1218 65.2027 88.1076 65.5827C87.1573 65.9403 86.2701 66.4473 85.4796 67.0844C84.6995 67.7185 84.0104 68.4569 83.4316 69.2789C82.8505 70.0991 82.3608 70.9803 81.9711 71.9069C81.584 72.8372 81.2904 73.8037 81.0945 74.7921C80.8975 75.7584 80.7969 76.7418 80.7941 77.728C80.7943 78.2448 80.8294 78.7609 80.8992 79.2729L80.841 79.2429L80.2385 78.9388L79.7391 79.3912C79.0759 79.9972 78.3647 80.5484 77.6123 81.0393C76.947 81.4721 76.2469 81.8488 75.5192 82.1656C74.8768 82.4428 74.2083 82.6553 73.5238 82.8001C72.0791 83.1279 70.5726 83.0572 69.165 82.5955C68.384 82.3236 67.6514 81.9288 66.9949 81.426C66.2931 80.8823 65.6729 80.2407 65.1534 79.5207C64.5726 78.7149 64.091 77.8419 63.7192 76.9208C63.2986 75.8789 62.9841 74.7972 62.7806 73.6921C62.5548 72.446 62.4442 71.1817 62.4503 69.9152C62.4499 68.7894 62.5378 67.6653 62.7131 66.5532C62.878 65.484 63.1406 64.4321 63.4977 63.4108C63.8317 62.4569 64.2725 61.5438 64.8118 60.6889C65.3047 59.9009 65.9135 59.1915 66.6176 58.5846C67.3074 57.9986 68.0938 57.5369 68.9416 57.2199C69.8724 56.8812 70.857 56.7145 71.8474 56.7281C72.468 56.727 73.087 56.7899 73.6946 56.9158C74.2716 57.0329 74.8338 57.2135 75.3709 57.4546C75.8774 57.6853 76.3545 57.9758 76.792 58.3199C77.2022 58.6424 77.5644 59.0216 77.8676 59.4462C78.1296 59.8309 78.3203 60.2594 78.4307 60.7115C78.5465 61.2154 78.6094 61.73 78.6185 62.247C78.6185 62.3577 78.6185 62.4629 78.6185 62.5605C78.6185 62.6581 78.6091 62.7707 78.6016 62.8852L78.5284 63.9045L81.6802 64.0134L81.729 63.0467C81.8003 61.6538 81.8585 60.4649 81.9035 59.48C81.9486 58.4889 81.9711 57.6686 81.9711 57.0397C81.9711 56.4428 81.6595 55.8796 81.0175 55.3221C80.43 54.8357 79.7708 54.4432 79.0634 54.1583C78.1744 53.7873 77.2515 53.5038 76.3076 53.3117C75.1649 53.0801 74.0007 52.9712 72.8349 52.9869C71.1515 52.9697 69.4763 53.2232 67.8734 53.7378C66.4165 54.2132 65.0432 54.9144 63.8037 55.8158C62.6077 56.6934 61.5459 57.7406 60.6519 58.9244C59.7657 60.098 59.0221 61.3728 58.4368 62.7219C57.8499 64.081 57.4094 65.4988 57.1228 66.9512C56.9933 67.5969 56.8938 68.2445 56.8225 68.8903C56.7267 68.6369 56.6235 68.3872 56.5108 68.1394C56.2484 67.5732 55.9029 67.0494 55.4859 66.5851C55.0607 66.1185 54.5512 65.7363 53.9841 65.4588C53.3474 65.1574 52.6499 65.0065 51.9455 65.0177C50.9401 65.0427 49.9583 65.328 49.096 65.8455C48.0726 66.4494 47.1498 67.2095 46.3609 68.0981C45.3894 69.1841 44.5262 70.3623 43.7835 71.6159C43.6821 71.7849 43.5789 71.9576 43.4794 72.134C43.5094 71.5897 43.5357 71.1047 43.5583 70.6792C43.5939 69.964 43.6183 69.4272 43.6315 69.0367C43.6446 68.6463 43.6521 68.3628 43.6521 68.2164C43.6603 67.7811 43.6066 67.3469 43.4926 66.9268C43.3855 66.5438 43.1929 66.1902 42.9294 65.8924C42.6772 65.6157 42.3597 65.4066 42.0058 65.2842C41.7033 65.1828 41.3863 65.1314 41.0672 65.1322C40.8157 65.1383 40.5648 65.1615 40.3164 65.2016C40.0179 65.2467 39.6274 65.3237 39.1225 65.4363C38.6175 65.5489 38.0262 65.6972 37.3129 65.8868C36.5995 66.0764 35.7341 66.3261 34.7261 66.6377L34.1423 66.8141C33.7172 66.4487 33.2547 66.129 32.7626 65.8605C31.6859 65.2872 30.4812 64.9972 29.2616 65.0177C28.1786 65.01 27.1033 65.2008 26.0892 65.5808C25.1386 65.9379 24.2513 66.4449 23.4611 67.0826C22.6759 67.7159 21.9822 68.455 21.3999 69.2789C20.8189 70.0991 20.3292 70.9803 19.9395 71.9069C19.5493 72.835 19.2525 73.7996 19.0535 74.7865C18.8555 75.7526 18.7549 76.7362 18.7531 77.7224C18.7527 78.8674 18.9222 80.0061 19.2562 81.1013C19.5779 82.1823 20.0862 83.1988 20.7579 84.1048C21.4324 85.0013 22.2915 85.7426 23.2771 86.2785C24.3537 86.8522 25.5584 87.1429 26.7781 87.1232C27.861 87.13 28.9361 86.9392 29.9505 86.5601C30.9002 86.201 31.7871 85.6942 32.5786 85.0584C33.3582 84.4231 34.0473 83.6841 34.6266 82.8621C35.2084 82.0413 35.6999 81.1602 36.0927 80.234C36.8744 78.3931 37.2809 76.4148 37.2885 74.4148C37.2892 73.2696 37.119 72.1308 36.7835 71.0359C36.6083 70.4597 36.3815 69.9006 36.1058 69.3652C36.4587 69.2864 36.7797 69.2225 37.0538 69.1775C37.402 69.1197 37.754 69.0871 38.1069 69.0799C38.239 69.072 38.3713 69.0885 38.4974 69.1287C38.532 69.2067 38.5541 69.2897 38.5631 69.3746C38.5939 69.6237 38.6083 69.8745 38.6062 70.1255C38.6062 70.9495 38.5912 72.0026 38.5593 73.2772C38.5274 74.5518 38.4861 75.9935 38.4335 77.5384C38.381 79.0833 38.3134 80.7897 38.2327 82.5617C38.152 84.3338 38.0637 86.1565 37.9661 88.0055C37.8685 89.8545 37.7615 91.6866 37.6451 93.5112C37.5287 95.3359 37.4048 97.0779 37.2697 98.741L37.2134 99.4469C37.6274 99.6474 38.0824 99.7489 38.5424 99.7434C39.4322 99.719 40.5491 99.5013 41.1892 98.8199C41.7601 98.1727 42.1556 97.3901 42.3381 96.5466C42.3625 94.6695 42.4113 92.8392 42.4826 91.0859C42.554 89.3752 42.624 87.7027 42.6929 86.0683C43.0319 86.2711 43.3881 86.4438 43.7572 86.5845C45.563 87.2665 47.5509 87.2924 49.3738 86.6577C50.2852 86.3468 51.1479 85.9081 51.9361 85.3549C52.7697 84.7668 53.5231 84.0727 54.1775 83.2901C54.8807 82.4502 55.4772 81.5265 55.9533 80.54C56.4667 79.4725 56.8595 78.3512 57.1247 77.1968C57.1885 76.9208 57.2448 76.6336 57.2955 76.3502C57.574 77.4258 57.9562 78.472 58.4368 79.4738C58.9898 80.6218 59.6875 81.6943 60.513 82.665C61.3109 83.6003 62.2338 84.4215 63.2556 85.1053C65.337 86.4913 67.785 87.224 70.2856 87.2096C71.2665 87.2156 72.2457 87.1289 73.2103 86.9505C74.2216 86.7555 75.2068 86.4437 76.1462 86.0213C77.1593 85.5611 78.1208 84.9948 79.0146 84.3319C79.9505 83.6372 80.8186 82.8553 81.6069 81.9967C81.9095 82.7441 82.307 83.4494 82.7896 84.0954C83.4638 84.9926 84.3229 85.7345 85.3088 86.271C86.3856 86.8456 87.5912 87.1363 88.8116 87.1157C89.8939 87.1224 90.9683 86.9315 91.9822 86.5526C92.9318 86.1935 93.8187 85.6867 94.6102 85.0508C95.3899 84.4156 96.0789 83.6766 96.6582 82.8546C97.2393 82.0334 97.7308 81.1523 98.1243 80.2265C98.906 78.3856 99.3126 76.4073 99.3201 74.4073C99.3208 73.2621 99.1506 72.1233 98.8151 71.0284C98.6533 70.4953 98.4473 69.9767 98.1994 69.4778C98.4509 69.414 98.6781 69.3596 98.8789 69.3126C99.0798 69.2657 99.3107 69.215 99.489 69.1831C99.6674 69.1512 99.8194 69.1268 99.9564 69.1118C100.076 69.0987 100.196 69.0918 100.317 69.0911C100.417 69.0895 100.517 69.0976 100.615 69.1155C100.63 69.1709 100.641 69.2274 100.647 69.2845C100.673 69.534 100.685 69.7846 100.683 70.0354C100.683 70.4277 100.683 70.9739 100.662 71.661C100.642 72.348 100.627 73.1327 100.597 74.0037C100.567 74.8747 100.529 75.8246 100.49 76.8345C100.45 77.8444 100.401 78.8674 100.349 79.8849C100.296 80.9023 100.238 81.9141 100.176 82.9165C100.114 83.9189 100.047 84.8237 99.9771 85.6628L99.8926 86.6633L101.207 86.7459L104.878 86.2898L104.952 85.5014C105.004 84.9382 105.094 84.2399 105.22 83.4121C105.346 82.5842 105.511 81.6888 105.716 80.7446C105.92 79.8004 106.166 78.8205 106.45 77.8237C106.733 76.827 107.048 75.8865 107.388 74.9911C107.704 74.164 108.08 73.3614 108.515 72.5902C108.839 71.9964 109.253 71.4563 109.742 70.989C109.956 70.7894 110.205 70.6304 110.476 70.5197C110.728 70.4174 110.998 70.3651 111.27 70.3657C111.506 70.3638 111.739 70.4084 111.957 70.4971C112.25 70.6306 112.522 70.8064 112.764 71.019L113.039 71.248H113.834L114.099 71.0453C114.558 70.7093 114.93 70.2694 115.185 69.7616C115.441 69.2539 115.572 68.6928 115.569 68.1244C115.574 67.6826 115.48 67.2453 115.295 66.8442ZM32.0305 77.2906C31.9731 77.8847 31.879 78.4746 31.7489 79.057C31.6187 79.6379 31.4436 80.2078 31.2251 80.7615C31.0407 81.245 30.7878 81.6995 30.4743 82.1112C30.2004 82.4614 29.8597 82.7537 29.4718 82.9709C29.0941 83.1745 28.6693 83.2749 28.2404 83.2619C27.813 83.2688 27.3887 83.1877 26.994 83.0235C26.6054 82.8546 26.2491 82.6196 25.9409 82.3289C25.6056 82.0078 25.3185 81.6398 25.0886 81.2364C24.8261 80.7754 24.6086 80.2901 24.4391 79.7873C24.2604 79.2549 24.1291 78.7077 24.0468 78.1522C23.9615 77.59 23.9182 77.0221 23.9173 76.4534C23.9173 75.9672 23.9454 75.4191 23.9998 74.8259C24.055 74.2317 24.1484 73.6417 24.2795 73.0595C24.4108 72.4807 24.5859 71.9128 24.8033 71.3606C24.9889 70.8783 25.2417 70.4246 25.5542 70.0128C25.8223 69.6639 26.1581 69.3728 26.5416 69.1568C26.9223 68.9543 27.3494 68.8547 27.7805 68.8678C28.2081 68.8616 28.6323 68.9434 29.027 69.108C29.4159 69.2756 29.7729 69.5093 30.0819 69.7988C30.4173 70.1148 30.7033 70.4793 30.9304 70.8801C31.1931 71.3398 31.4106 71.8239 31.5799 72.3255C31.7592 72.8527 31.8912 73.3949 31.9741 73.9455C32.059 74.5097 32.1023 75.0794 32.1037 75.65C32.113 76.1493 32.0849 76.6993 32.0305 77.2906ZM51.8779 78.6347C51.622 79.634 51.189 80.5794 50.5996 81.426C49.9368 82.3556 48.9784 83.0331 47.8809 83.3478C46.7834 83.6625 45.6116 83.5958 44.5569 83.1587C43.9888 82.9213 43.4547 82.6095 42.9688 82.2313C43.0176 81.9141 43.089 81.5649 43.1809 81.1895C43.3433 80.5291 43.5394 79.8775 43.7685 79.2372C44.0125 78.5427 44.3016 77.8181 44.6283 77.0841C44.9516 76.3564 45.3112 75.6453 45.7058 74.9535C46.0889 74.2816 46.5074 73.6306 46.9597 73.0032C47.354 72.4499 47.7989 71.9346 48.2888 71.4639C48.6882 71.0778 49.1385 70.7482 49.6272 70.484C49.9828 70.2877 50.3812 70.182 50.7873 70.1761C50.8768 70.1725 50.9661 70.1888 51.0485 70.2238C51.131 70.2589 51.2046 70.3119 51.2641 70.3789C51.5179 70.6537 51.7138 70.9767 51.8404 71.3287C52.0209 71.8248 52.1468 72.339 52.2158 72.8624C52.3011 73.4354 52.345 74.0138 52.3472 74.5931C52.3721 75.9552 52.2143 77.3145 51.8779 78.6347ZM94.0583 77.2906C94.0021 77.8848 93.9081 78.4748 93.7767 79.057C93.6463 79.6384 93.4712 80.2089 93.253 80.7634C93.0677 81.2459 92.8149 81.6997 92.5021 82.1112C92.2316 82.4625 91.8941 82.7566 91.5091 82.9766C91.1313 83.1801 90.7066 83.2805 90.2777 83.2675C89.8501 83.2754 89.4257 83.1942 89.0312 83.0291C88.6423 82.8609 88.2859 82.6258 87.9781 82.3346C87.6428 82.0134 87.3558 81.6454 87.1259 81.2421C86.8633 80.781 86.6458 80.2957 86.4764 79.7929C86.2977 79.2605 86.1664 78.7134 86.084 78.1579C85.9987 77.5956 85.9554 77.0277 85.9545 76.459C85.9545 75.9728 85.9827 75.4247 86.0371 74.8315C86.0918 74.2371 86.1859 73.647 86.3187 73.0651C86.4484 72.4862 86.6229 71.9182 86.8405 71.3663C87.0262 70.8839 87.279 70.4302 87.5914 70.0185C87.8595 69.6695 88.1954 69.3784 88.5788 69.1625C88.9596 68.9599 89.3867 68.8603 89.8178 68.8734C90.2453 68.8672 90.6696 68.949 91.0642 69.1137C91.4532 69.2812 91.8101 69.5149 92.1192 69.8045C92.4545 70.1204 92.7405 70.4849 92.9677 70.8857C93.2309 71.3454 93.4491 71.8294 93.6191 72.3311C93.7969 72.8587 93.9281 73.4007 94.0114 73.9511C94.0972 74.5152 94.1405 75.085 94.1409 75.6556C94.1409 76.1493 94.1128 76.6993 94.0583 77.2906Z" fill="#412013"/>
<path d="M138.138 81.6982L137.17 82.1412C136.735 82.3413 136.283 82.5034 135.82 82.6255C135.43 82.7293 135.028 82.7836 134.624 82.7869C134.479 82.7935 134.334 82.7731 134.196 82.7269C134.175 82.7053 134.158 82.6798 134.146 82.6518C134.044 82.4281 133.98 82.1889 133.958 81.9441C133.9 81.4231 133.874 80.899 133.881 80.3748C133.881 79.9993 133.896 79.5376 133.926 79.0213C133.956 78.5051 133.994 77.9232 134.039 77.3319C134.084 76.7406 134.132 76.1286 134.191 75.526C134.249 74.9235 134.3 74.3115 134.345 73.754C134.39 73.1965 134.427 72.6934 134.459 72.2391C134.491 71.7848 134.508 71.385 134.508 71.0959C134.524 70.1963 134.397 69.2998 134.132 68.4397C133.918 67.7352 133.564 67.0809 133.092 66.5156C132.655 66.0095 132.104 65.6129 131.486 65.3574C130.087 64.7943 128.527 64.905 126.933 65.7648C126.031 66.2528 125.128 67.0412 124.247 68.1131C123.333 69.2671 122.548 70.5171 121.904 71.8412C121.996 70.8144 122.092 69.842 122.19 68.9503C122.287 68.0587 122.394 67.2872 122.515 66.6189L122.646 65.883L121.972 65.5583C121.661 65.4079 121.337 65.286 121.003 65.1941C120.617 65.0928 120.22 65.043 119.821 65.0458C119.582 65.0474 119.344 65.0706 119.109 65.1153C118.805 65.1705 118.512 65.2779 118.244 65.4325C117.945 65.6058 117.688 65.8438 117.493 66.1289C117.259 66.485 117.138 66.9041 117.148 67.3303C117.148 68.1506 117.123 69.0667 117.101 70.0522C117.078 71.0377 117.052 72.0777 117.02 73.1552C116.988 74.2327 116.954 75.3308 116.913 76.4571C116.875 77.5496 116.83 78.6628 116.78 79.7703C116.731 80.8478 116.678 81.9028 116.62 82.9071C116.562 83.9114 116.504 84.8406 116.432 85.6778L116.359 86.6708L117.658 86.7515L121.36 86.2916L121.405 85.4694C121.476 84.1876 121.645 82.913 121.91 81.6569C122.169 80.4135 122.506 79.1878 122.92 77.987C123.301 76.875 123.756 75.7895 124.281 74.7376C124.721 73.8429 125.236 72.9876 125.822 72.1809C126.251 71.5803 126.76 71.0409 127.335 70.5778C127.727 70.2775 128.075 70.1254 128.368 70.1254C128.521 70.1168 128.673 70.1467 128.812 70.2122C128.95 70.2778 129.07 70.3771 129.16 70.5009C129.331 70.7167 129.535 71.186 129.535 72.1903C129.535 72.5507 129.507 73.0501 129.453 73.6733L129.265 75.8583C129.195 76.658 129.13 77.5177 129.077 78.415C129.025 79.3123 128.989 80.2096 128.989 81.0675C128.989 81.7733 129.01 82.4434 129.051 83.0591C129.078 83.6645 129.174 84.2647 129.338 84.8481C129.499 85.412 129.806 85.9234 130.228 86.331C130.722 86.7765 131.371 87.011 132.036 86.9843C132.598 86.9751 133.158 86.895 133.701 86.7459C134.294 86.5917 134.875 86.3967 135.441 86.1621C136.001 85.9309 136.548 85.6703 137.08 85.3812C137.559 85.1264 138.016 84.8292 138.442 84.4933L138.992 84.0522L138.138 81.6982Z" fill="#412013"/>
<path fill-rule="evenodd" clip-rule="evenodd" d="M115.837 101.576C116.093 102.409 115.588 102.784 115.017 102.916C113.633 103.264 112.227 103.521 110.808 103.685C108.637 103.899 108.603 103.828 108.075 105.953C107.769 107.19 107.55 108.45 107.324 109.707C107.204 110.381 107.242 111.021 107.888 111.493C108.278 111.776 108.126 112.114 107.766 112.362C106.97 112.906 105.992 112.69 105.808 111.744C105.624 110.798 105.719 109.73 105.845 108.741C105.973 107.708 106.283 106.7 106.408 105.587C106.119 105.904 105.845 106.231 105.541 106.539C103.829 108.286 102.019 109.935 99.5585 110.511C98.6673 110.712 97.7427 110.712 96.8516 110.511C95.286 110.135 94.7867 108.838 94.6384 107.276C94.2029 107.626 93.8499 107.952 93.4539 108.215C92.8749 108.633 92.2584 108.997 91.6123 109.302C90.2983 109.85 89.3804 109.424 89.0293 108.052C88.7271 106.869 88.6088 105.64 88.3967 104.433C88.346 104.143 88.2447 103.869 88.102 103.353C87.5877 103.963 87.154 104.386 86.8311 104.879C85.9939 106.163 85.2243 107.49 84.3908 108.774C84.0154 109.338 83.6399 110.073 82.7971 109.831C81.9542 109.589 82.018 108.729 81.9448 108.04C81.8172 106.847 81.7571 105.645 81.6069 104.453C81.5847 104.309 81.5322 104.171 81.453 104.049C81.3737 103.927 81.2694 103.823 81.147 103.744C81.0175 103.676 80.6214 103.931 80.4769 104.119C79.5621 105.381 78.6716 106.659 77.8056 107.954C77.3082 108.705 76.9271 109.52 76.3959 110.231C76.1819 110.518 75.6788 110.774 75.3465 110.732C75.0537 110.695 74.6557 110.257 74.5957 109.938C74.4433 109.216 74.3933 108.475 74.4474 107.738C74.5863 105.979 74.8228 104.23 75.0105 102.482C75.0218 102.379 74.9936 102.24 75.0499 102.182C75.4028 101.806 75.7539 101.2 76.1443 101.172C76.8013 101.121 76.8408 101.853 76.7769 102.34C76.5761 103.907 76.2945 105.465 76.0523 107.032C75.9761 107.428 75.9928 107.835 76.1012 108.223C76.5517 107.56 77.0116 106.909 77.4508 106.231C78.121 105.204 78.7255 104.128 79.4594 103.149C79.8564 102.623 80.3656 102.193 80.9499 101.889C81.8097 101.45 82.6206 101.823 82.8609 102.766C83.0749 103.597 83.0862 104.48 83.1988 105.339C83.287 106.028 83.3959 106.715 83.4954 107.404L83.7676 107.453C83.9891 107.132 84.2144 106.817 84.4284 106.492C85.3219 105.125 86.1779 103.732 87.124 102.403C87.46 101.932 87.8918 101.42 88.6257 101.519C89.401 101.622 89.707 102.026 89.7915 103.051C89.8759 104.076 89.9792 105.138 90.1031 106.178C90.1542 106.503 90.2503 106.819 90.3884 107.117C90.7 107.84 91.19 108.076 91.8526 107.669C92.7792 107.085 93.6659 106.44 94.507 105.739C94.7228 105.563 94.7792 105.155 94.8486 104.84C95.2672 102.942 96.0538 101.253 97.6531 100.064C98.6706 99.3135 99.7894 99.2478 100.411 99.8185C101.162 100.502 101.417 101.883 100.687 102.844C99.78 104.027 98.633 105.026 97.578 106.092C97.3693 106.282 97.1459 106.454 96.9098 106.608C96.0387 107.243 96.0594 108.097 96.9849 108.722C97.8183 109.285 98.7475 109.214 99.6486 108.985C102.074 108.373 103.87 106.764 105.642 105.123C105.866 104.915 106.114 104.731 106.35 104.536C106.322 104.468 106.294 104.399 106.264 104.331C105.888 104.348 105.498 104.365 105.115 104.386C104.836 104.417 104.556 104.433 104.276 104.433C103.484 104.382 103.082 104.046 103.166 103.46C103.26 102.805 103.822 102.97 104.25 102.936C104.989 102.88 105.729 102.822 106.47 102.783C107.033 102.753 107.172 102.345 107.274 101.91C107.649 100.344 107.998 98.7767 108.362 97.2167C108.412 96.9923 108.474 96.771 108.55 96.5541C108.708 96.1167 109.044 95.8032 109.479 96.0153C109.628 96.1034 109.755 96.2231 109.853 96.3658C109.95 96.5085 110.015 96.6708 110.043 96.8413C110.082 97.2505 109.907 97.6841 109.8 98.1028C109.509 99.2291 109.207 100.372 108.909 101.506C108.745 102.131 108.943 102.46 109.628 102.373C111.576 102.123 113.524 101.873 115.471 101.622C115.556 101.604 115.657 101.596 115.837 101.576ZM96.5963 105.397C97.3678 104.684 98.2576 103.988 98.9672 103.145C99.3088 102.737 99.3595 102.052 99.4365 101.48C99.4515 101.363 98.9728 101.033 98.7588 101.063C98.1412 101.153 96.8816 102.818 96.8497 103.408C96.8028 104.042 96.692 104.673 96.5963 105.397Z" fill="#9F7554"/>
<path fill-rule="evenodd" clip-rule="evenodd" d="M47.5585 104.098C47.9921 103.911 48.2456 103.616 47.5754 103.256C46.9841 102.936 46.2614 102.95 45.6288 102.707C45.1536 102.527 44.721 102.25 44.3579 101.895C44.1418 101.756 43.9433 101.591 43.7666 101.405C42.5802 100.153 41.8669 99.995 40.4421 101.001C38.4222 102.43 37.0632 104.393 36.2898 106.74C36.1658 107.182 36.0872 107.636 36.0551 108.095C35.9293 109.221 37.1814 110.973 38.6513 110.817C40.5059 110.618 42.1616 110.13 43.3968 108.667C44.632 107.205 45.5762 105.589 45.0374 103.734L47.5585 104.098ZM39.0774 109.234C38.3434 109.176 37.7164 108.63 37.8084 107.903C37.9004 107.177 38.0205 106.353 38.3828 105.72C39.0004 104.643 39.7982 103.667 40.5566 102.676C40.932 102.176 41.4126 102.032 42.0077 102.46C42.5708 102.867 43.4982 102.814 43.6033 103.774C43.6427 104.128 43.6896 104.481 43.7328 104.834C43.9017 106.693 41.086 109.396 39.0774 109.234Z" fill="#9F7554"/>
<path fill-rule="evenodd" clip-rule="evenodd" d="M73.3642 102.118C72.9751 101.896 72.5415 101.764 72.0949 101.732C71.6483 101.699 71.2001 101.767 70.783 101.93C69.591 102.349 68.5555 103.122 67.8152 104.145C67.0549 105.225 66.4092 106.385 65.7128 107.509L65.5738 107.524C65.7616 106.473 65.8254 105.377 66.1802 104.386C66.4711 103.575 66.9442 102.85 66.503 101.985C66.3585 101.699 66.1145 101.307 65.8723 101.273C65.6302 101.24 65.1947 101.529 65.082 101.78C64.868 102.259 64.8286 102.815 64.7066 103.336C64.609 103.751 64.6315 104.296 64.3724 104.553C63.2461 105.679 62.0016 106.668 60.4754 107.209C59.6025 107.519 59.152 107.299 58.7503 106.449C58.2059 105.296 58.2059 104.074 58.3373 102.843C58.403 102.234 58.525 101.63 58.5682 101.022C58.5832 100.853 58.4462 100.53 58.3617 100.524C58.2545 100.52 58.1474 100.536 58.0466 100.573C57.9457 100.609 57.8532 100.666 57.7741 100.738C57.5806 100.976 57.4242 101.241 57.3105 101.525C56.8599 102.497 56.4395 103.485 55.9795 104.451C55.2012 106.074 54.0349 107.481 52.5837 108.546C52.0431 108.949 51.3861 109.462 50.7065 109.052C49.9557 108.604 50.2128 107.751 50.3461 107.076C50.6652 105.48 51.0763 103.901 51.4593 102.274C51.3458 102.204 51.239 102.123 51.1402 102.034C50.455 101.305 49.9219 101.283 49.5201 101.97C49.415 102.52 49.3606 103.075 49.293 103.629C49.293 103.64 49.293 103.65 49.293 103.661C49.293 103.83 49.2705 103.997 49.2517 104.164C49.2517 104.221 49.2517 104.277 49.2517 104.331C49.2517 104.352 49.2517 104.374 49.2517 104.395C49.2517 104.521 49.2386 104.647 49.2236 104.771C49.2197 104.805 49.2108 104.838 49.1973 104.87C49.1597 105.212 49.1203 105.57 49.079 105.929C48.9645 106.914 48.7599 107.902 48.7599 108.887C48.7599 110.282 49.8111 111.078 51.1383 110.689C51.9286 110.456 52.8071 110.143 53.3627 109.584C54.506 108.433 55.4577 107.093 56.4883 105.829C56.6309 105.655 56.7623 105.471 56.9069 105.285C57.149 106.12 57.3067 106.875 57.5883 107.579C58.0764 108.791 59.1013 109.268 60.3271 108.81C61.0835 108.503 61.8094 108.126 62.4953 107.684C63.0922 107.323 63.6347 106.873 64.2429 106.432C64.2429 106.777 64.2429 107.033 64.2429 107.286C64.2073 108.382 64.1265 109.48 64.1491 110.577C64.1491 111.001 64.2467 111.573 64.8849 111.56C65.4875 111.547 65.9831 111.429 66.1558 110.642C66.5218 108.94 67.228 107.329 68.2319 105.906C69.4108 104.239 70.9088 103.19 73.0638 103.333C73.2966 103.348 73.7527 103.085 73.7471 102.957C73.7302 102.681 73.5857 102.251 73.3642 102.118Z" fill="#9F7554"/>
<path fill-rule="evenodd" clip-rule="evenodd" d="M31.1763 108.709C30.1476 109.189 29.2992 109.61 28.445 109.98C26.6636 110.744 24.8446 111.083 22.9374 110.445C20.3694 109.585 19.5265 108.005 20.2661 105.414C20.9776 102.908 22.5882 100.99 24.4279 99.2648C27.1047 96.755 30.2621 95.2533 33.9771 95.12C35.1447 95.0787 35.9557 96.0942 35.6853 97.1342C35.5108 97.8119 34.8124 98.1291 34.345 97.6429C33.551 96.8151 32.6725 96.9014 31.7282 97.1661C28.1764 98.1227 25.128 100.408 23.2133 103.548C22.6051 104.517 22.4174 105.79 22.209 106.954C22.0457 107.875 22.9993 108.831 24.0618 108.93C24.7676 109.002 25.5072 109.064 26.1924 108.93C28.4131 108.491 30.4517 107.648 31.9291 105.82C32.3045 105.349 32.7175 104.863 32.4678 104.162C32.4456 104.02 32.4692 103.875 32.5354 103.747C33.016 103.747 33.5547 103.661 33.964 103.847C34.3732 104.033 34.9645 104.281 34.6229 105.058C33.8945 106.712 33.2093 108.386 32.6068 110.087C32.4303 110.586 32.5523 111.213 32.6068 111.776C32.6706 112.386 32.4416 112.784 31.8765 112.947C31.3115 113.111 30.7765 113.015 30.7258 112.334C30.7041 111.653 30.7462 110.972 30.8516 110.299C30.9098 109.814 31.0412 109.355 31.1763 108.709Z" fill="#9F7554"/>
</g>
<defs>
<clipPath id="clip0_310_37">
<rect width="139" height="113" fill="white"/>
</clipPath>
</defs>
</svg>
